<svg width="246" height="38" viewBox="0 0 246 38" fill="none" xmlns="http://www.w3.org/2000/svg">
<path d="M31.6631 34.2326L33.6801 34.146L33.6727 34.1247L33.7112 34.132C35.4028 34.4542 37.2711 34.6112 39.1971 34.6112C43.5381 34.6112 48.3431 33.8045 52.1207 32.097C55.1212 30.7408 57.7788 28.6552 58.6919 25.7121C61.1681 31.0318 66.5478 34.5357 72.6279 34.5357C81.1493 34.5357 88.9891 28.5397 88.9891 18.8157C88.9891 14.6624 87.5987 10.5987 84.8897 7.55428C82.16 4.48668 78.1556 2.52987 73.1182 2.52987C68.1881 2.52987 64.1828 4.40153 61.4231 7.46782C58.7761 10.409 57.3487 14.3643 57.2525 18.6181C56.9619 18.2985 56.6387 18.0031 56.285 17.7326C55.4273 17.0767 54.4187 16.5875 53.3119 16.2367C54.965 14.6791 56.0487 12.891 56.0487 10.593C56.0487 7.81722 54.2461 5.87508 51.8479 4.70841C49.474 3.55352 46.2992 3.02022 42.8558 3.02022C39.081 3.02022 35.1957 3.64737 31.9216 4.673L30.8012 5.02396L30.8728 6.19586L32.3465 30.3235L22.8687 3.15855L22.4866 2.06354L21.3307 2.15762L11.5992 2.94972L10.5494 3.03518L10.2733 4.05172L2.54097 32.5295L1.99808 34.5289L4.06705 34.4205L12.7047 33.9679L13.8817 33.9062L14.1002 32.7481L15.0096 27.9282L19.8851 27.7514L21.3574 33.4843L21.6599 34.6619L22.8746 34.6098L31.6631 34.2326ZM17.1138 17.94L17.675 19.7297H16.6816L17.1138 17.94ZM43.2897 25.3183L43.0411 22.9563C43.5821 22.8379 44.2103 22.7674 44.8549 22.7674C45.7703 22.7674 46.3449 22.9106 46.6392 23.0756C46.7664 23.1469 46.8063 23.2025 46.8192 23.2238C46.8297 23.241 46.8628 23.2998 46.8628 23.4551C46.8628 23.6827 46.7143 24.1308 45.7546 24.6145C45.1155 24.9366 44.2646 25.1846 43.2897 25.3183ZM41.7356 11.7504C42.0573 11.6774 42.3897 11.6403 42.705 11.6403C43.5626 11.6403 44.1448 11.8241 44.4635 12.0357C44.7176 12.2045 44.826 12.3902 44.826 12.7052C44.826 12.9579 44.6563 13.4178 43.8578 13.9042C43.3697 14.2014 42.7296 14.4476 41.9891 14.5972L41.7356 11.7504ZM73.2314 24.4446C71.5652 24.4446 70.4748 23.841 69.7793 23.0274C69.0542 22.1792 68.6586 20.981 68.6586 19.6832C68.6586 18.0213 69.1591 16.7535 69.9154 15.9192C70.6588 15.0992 71.751 14.5824 73.1936 14.5824C75.7086 14.5824 77.2383 16.7335 77.2383 19.1552C77.2383 20.899 76.769 22.2406 76.072 23.1127C75.3992 23.9545 74.4534 24.4446 73.2314 24.4446Z" fill="#F8D331" stroke="white" stroke-width="3"/>
<path d="M109.535 22.8561L109.003 21.1562L107.418 21.9699C106.223 22.5836 104.91 22.8981 103.728 22.8981C102.415 22.8981 101.324 22.5061 100.573 21.8007C99.841 21.1132 99.2684 19.9742 99.2684 18.1367C99.2684 17.0068 99.6728 15.9393 100.482 15.1535C101.284 14.3756 102.608 13.7526 104.671 13.7526C105.376 13.7526 106.122 13.9005 106.791 14.2354L108.32 14.9998L108.88 13.3847L111.218 6.63303L111.691 5.26777L110.344 4.74409C108.144 3.88853 106.037 3.51053 104.105 3.51053C93.0605 3.51053 87.593 11.9544 87.593 19.57C87.593 27.9542 94.2747 34.762 103.728 34.762C105.55 34.762 107.494 34.4972 109.49 33.9594L109.335 34.5289L111.404 34.4205L120.042 33.9678L121.218 33.9062L121.437 32.748L122.346 27.9282L127.222 27.7513L128.694 33.4843L128.997 34.6619L130.211 34.6097L139 34.2326L141.017 34.146L140.352 32.2398L140.319 32.1444C143.418 34.0707 147.514 35.026 151.437 35.026C155.105 35.026 158.851 34.1935 161.729 32.299C163.598 31.0695 165.086 29.3964 165.923 27.2765L165.555 32.0531L165.443 33.5126L166.899 33.6605L181.383 35.1315L182.928 35.2884L183.031 33.739L183.522 26.3838L183.623 24.8704L182.108 24.7863L180.911 24.7198L181.727 12.9982H184.062H184.765L185.28 32.3589L185.315 33.6764L186.626 33.8112L194.698 34.641L196.427 34.8188L196.35 33.0821L195.918 23.3926L203.208 34.7153L203.764 35.5777L204.769 35.3731L209.031 34.5056L210.127 34.2824L210.226 33.1678L212.753 4.57681L212.906 2.85056L211.175 2.94707L201.708 3.47514L200.235 3.55732L200.293 5.03182L200.597 12.7664L196.217 4.42623L195.701 3.44383L194.611 3.64974L185.822 5.30937L185.69 5.33433L185.712 4.24951L185.746 2.65264L184.15 2.71976L168.006 3.3987L166.519 3.46124L166.57 4.94877L166.796 11.5496L166.846 12.9982H168.295H169.751L169.31 23.9037L167.668 23.806L166.655 23.7457C166.663 23.5631 166.667 23.3782 166.667 23.191C166.667 19.6686 165.526 17.1935 163.635 15.5317C161.81 13.9287 159.463 13.2425 157.351 12.8773C156.282 12.6925 155.225 12.5827 154.274 12.492C154.118 12.4772 153.966 12.4629 153.817 12.449C153.038 12.3758 152.36 12.3122 151.768 12.2236C151.191 12.1373 150.819 12.0428 150.593 11.9549C150.639 11.9105 150.728 11.8431 150.891 11.7687C151.367 11.5514 152.161 11.414 153.21 11.414C155.551 11.414 158.246 12.0578 159.319 12.5311L161.351 13.4275L161.423 11.2079L161.65 4.3053L161.692 3.00073L160.406 2.77812C158.391 2.42936 155.85 2.11493 153.21 2.11493C149.909 2.11493 146.319 2.57334 143.5 4.07293C142.071 4.8335 140.807 5.87983 139.905 7.29632C138.998 8.71976 138.509 10.4345 138.509 12.4412C138.509 15.2513 139.754 17.1791 141.587 18.4526C143.314 19.6532 145.523 20.2466 147.488 20.6606C148.209 20.8125 148.886 20.9393 149.519 21.058C150.738 21.2865 151.795 21.4846 152.695 21.7729C153.353 21.9837 153.732 22.1899 153.929 22.3626C154.07 22.4852 154.086 22.5517 154.086 22.663C154.086 23.1191 153.89 23.5054 153.371 23.8412C152.805 24.2078 151.871 24.4822 150.608 24.4822C148.564 24.4822 145.992 23.7618 143.504 22.0344L142.313 21.2068L141.446 22.3705L138.356 26.519L130.206 3.15851L129.823 2.06351L128.668 2.15759L118.936 2.94969L117.886 3.03514L117.61 4.05169L111.125 27.9359L109.535 22.8561ZM124.451 17.94L125.012 19.7297H124.018L124.451 17.94ZM243.511 18.8157C243.511 14.6624 242.121 10.5986 239.412 7.55425C236.682 4.48665 232.678 2.52984 227.641 2.52984C222.71 2.52984 218.705 4.4015 215.945 7.46779C213.203 10.5151 211.77 14.6511 211.77 19.0797C211.77 27.9257 218.799 34.5357 227.15 34.5357C235.672 34.5357 243.511 28.5396 243.511 18.8157ZM227.754 24.4445C226.088 24.4445 224.997 23.8409 224.302 23.0273C223.577 22.1791 223.181 20.9809 223.181 19.6832C223.181 18.0213 223.681 16.7535 224.438 15.9192C225.181 15.0992 226.273 14.5824 227.716 14.5824C230.231 14.5824 231.761 16.7335 231.761 19.1551C231.761 20.8989 231.291 22.2406 230.594 23.1127C229.922 23.9545 228.976 24.4445 227.754 24.4445Z" fill="#FF5F4B" stroke="white" stroke-width="3"/>
</svg>
